<svg width="29" height="29" viewBox="0 0 29 29" fill="none" xmlns="http://www.w3.org/2000/svg">
<path d="M2.47134 7.09883C2.46358 6.95538 2.42765 6.81487 2.36559 6.68532C2.30353 6.55576 2.21656 6.4397 2.10965 6.34376C2.00273 6.24781 1.87797 6.17387 1.74248 6.12614C1.60699 6.07841 1.46342 6.05784 1.31998 6.0656C1.17654 6.07335 1.03603 6.10929 0.906475 6.17134C0.77692 6.2334 0.660857 6.32037 0.564913 6.42728C0.468969 6.5342 0.395023 6.65896 0.347296 6.79445C0.299569 6.92994 0.278996 7.07351 0.286752 7.21695L2.47134 7.09883ZM3.88009 1.50903C3.68856 1.7207 3.58736 1.99885 3.59812 2.2841C3.60887 2.56935 3.73072 2.8391 3.93764 3.03574C4.14456 3.23238 4.42016 3.34034 4.70559 3.33655C4.99102 3.33277 5.26366 3.21755 5.46529 3.01549L3.88009 1.50903ZM12.5513 25.8924C12.673 25.9707 12.8089 26.0242 12.9513 26.0497C13.0938 26.0751 13.2398 26.0721 13.3811 26.0407C13.5223 26.0093 13.6559 25.9502 13.7742 25.8668C13.8924 25.7834 13.993 25.6774 14.0699 25.5549C14.1469 25.4324 14.1988 25.2958 14.2227 25.1531C14.2465 25.0104 14.2418 24.8644 14.2087 24.7235C14.1757 24.5826 14.1151 24.4497 14.0304 24.3324C13.9456 24.2152 13.8385 24.1159 13.7151 24.0403L12.5513 25.8924ZM19.0395 26.2511C18.7554 26.1917 18.4593 26.2477 18.2165 26.4066C17.9736 26.5655 17.8038 26.8143 17.7445 27.0984C17.6851 27.3825 17.741 27.6785 17.8999 27.9214C18.0588 28.1642 18.3077 28.334 18.5918 28.3934L19.0395 26.2511ZM19.8153 19.6682L20.4788 18.9682L18.8922 17.4617L18.2286 18.1617L19.8153 19.6682ZM22.6649 18.6736L25.4503 20.2778L26.5426 18.382L23.7557 16.7778L22.6649 18.6736ZM25.9884 23.6028L23.9161 25.783L25.5028 27.2909L27.5736 25.1092L25.9884 23.6028ZM9.18988 20.2734C3.53738 14.322 2.58946 9.30091 2.47134 7.09883L0.286752 7.21695C0.432585 9.91487 1.57592 15.4332 7.60467 21.7799L9.18988 20.2734ZM11.1965 10.5944L11.6136 10.154L10.0284 8.64758L9.60988 9.08799L11.1965 10.5944ZM11.9432 4.6707L10.1043 2.07049L8.31779 3.33341L10.1553 5.93362L11.9432 4.6707ZM10.4018 9.84049C10.1393 9.58754 9.87436 9.33718 9.60696 9.08945L9.60404 9.09237L9.59967 9.09674L9.52675 9.18133C9.38395 9.37064 9.27085 9.58063 9.19133 9.80403C9.04842 10.2051 8.97259 10.7359 9.06884 11.398C9.25842 12.6988 10.1115 14.4474 12.3384 16.7938L13.9251 15.2859C11.8426 13.094 11.3293 11.7451 11.233 11.0801C11.1863 10.7592 11.233 10.5915 11.252 10.5376L11.2636 10.5099L11.2228 10.5638L11.1965 10.5944L10.4018 9.84049ZM12.3384 16.7924C14.5595 19.1315 16.2365 20.0503 17.5155 20.2588C18.1732 20.3653 18.7055 20.2792 19.108 20.1203C19.3318 20.0333 19.5397 19.9102 19.7234 19.7557L19.7745 19.7061L19.7949 19.6857L19.8051 19.677L19.8095 19.6726L19.8109 19.6697C19.8109 19.6697 19.8138 19.6682 19.0205 18.9142C18.2272 18.1617 18.2286 18.1603 18.2286 18.1588L18.2315 18.1574L18.2345 18.153L18.2432 18.1457L18.3118 18.0845C18.3254 18.0767 18.3229 18.0772 18.3045 18.0859C18.2753 18.0976 18.144 18.1442 17.867 18.099C17.2807 18.0028 16.0149 17.4865 13.9251 15.2859L12.3384 16.7924ZM10.1043 2.07049C8.6255 -0.0207578 5.668 -0.375133 3.88009 1.50903L5.46529 3.01549C6.228 2.21341 7.57113 2.27612 8.31779 3.33341L10.1043 2.07049ZM23.9161 25.783C23.5093 26.2117 23.0849 26.4422 22.6707 26.483L22.8851 28.6588C23.9745 28.5524 24.8568 27.972 25.5028 27.2909L23.9161 25.783ZM11.6136 10.154C13.0253 8.66799 13.1245 6.34341 11.9432 4.6707L10.1568 5.93362C10.7722 6.80424 10.6774 7.96508 10.0284 8.64758L11.6136 10.154ZM25.4503 20.2778C26.6476 20.9676 26.8824 22.6622 25.9884 23.6028L27.5736 25.1092C29.4768 23.1055 28.9226 19.7528 26.5426 18.382L25.4503 20.2778ZM20.4788 18.9682C21.0403 18.3761 21.9168 18.2434 22.6649 18.6736L23.7557 16.7778C22.153 15.8561 20.1682 16.1201 18.8922 17.4617L20.4788 18.9682ZM13.7151 24.0403C12.2815 23.139 10.7547 21.9199 9.18988 20.2734L7.60467 21.7799C9.28759 23.5517 10.9545 24.889 12.5513 25.8924L13.7151 24.0403ZM22.6693 26.483C21.4545 26.589 20.2308 26.5108 19.0395 26.2511L18.5918 28.3934C20.0013 28.698 21.4488 28.7875 22.8851 28.6588L22.6693 26.483Z" fill="#3E3E34"/>
</svg>
