<svg width="31" height="31" viewBox="0 0 31 31" fill="none" xmlns="http://www.w3.org/2000/svg">
<path d="M21.5348 4.89513C19.2802 2.64201 18.1544 1.51471 16.6917 1.09617C15.229 0.676172 13.6758 1.03492 10.571 1.75242L8.7802 2.16513C6.16687 2.76742 4.8602 3.0693 3.96479 3.96326C3.06937 4.85721 2.77041 6.1668 2.16666 8.77867L1.75249 10.5695C1.03645 13.6758 0.677702 15.2274 1.09624 16.6901C1.51624 18.1528 2.64354 19.2787 4.89666 21.5318L7.56541 24.2005C11.4883 28.1249 13.4483 30.0835 15.8837 30.0835C18.3206 30.0835 20.2806 28.1235 24.2021 24.202C28.125 20.2791 30.085 18.3191 30.085 15.8822C30.085 13.9251 28.8192 12.2743 26.2875 9.6668" stroke="#3E3E34" stroke-width="1.5" stroke-linecap="round"/>
</svg>
