<svg width="31" height="25" viewBox="0 0 31 25" fill="none" xmlns="http://www.w3.org/2000/svg">
<path d="M2.76757 16.9977C3.7782 14.8729 4.28424 13.8097 5.16507 13.1958C5.23702 13.1462 5.30993 13.0986 5.38382 13.0529C6.2982 12.5002 7.42111 12.5002 9.66549 12.5002C11.9099 12.5002 13.0313 12.5002 13.9486 13.0543C14.0215 13.0991 14.094 13.1457 14.1659 13.1943C15.0467 13.8097 15.5528 14.8714 16.5649 16.9977C18.0728 20.1666 18.8253 21.7518 18.1865 22.9156L18.1107 23.0454C17.4063 24.1668 15.7336 24.1668 12.3926 24.1668H6.93841C3.59591 24.1668 1.9232 24.1668 1.21882 23.0439L1.14299 22.9156C0.50278 21.7518 1.25674 20.1666 2.76466 16.9977M19.2132 12.5293C19.7907 12.5002 20.4805 12.5002 21.3307 12.5002C23.5736 12.5002 24.6965 12.5002 25.6138 13.0543C25.6867 13.0991 25.7592 13.1457 25.8311 13.1943C26.7119 13.8097 27.218 14.8714 28.2301 16.9977C29.738 20.1666 30.4905 21.7518 29.8517 22.9156C29.8284 22.9593 29.8031 23.0026 29.7759 23.0454C29.0715 24.1668 27.3988 24.1668 24.0563 24.1668H22.4099M23.6757 8.12516C23.3607 7.35516 22.9247 6.43933 22.3982 5.331C21.3861 3.2062 20.8815 2.14308 19.9992 1.52912C19.9278 1.47932 19.8548 1.43165 19.7805 1.3862C18.8661 0.833496 17.7432 0.833496 15.4988 0.833496C13.2544 0.833496 12.133 0.833496 11.2157 1.38766C11.1428 1.43141 11.0699 1.47808 10.9969 1.52766C10.1176 2.14308 9.61153 3.20475 8.59945 5.331C8.07153 6.43933 7.63695 7.35516 7.32195 8.12516" stroke="#3E3E34" stroke-width="1.5" stroke-linecap="round" stroke-linejoin="round"/>
</svg>
