<svg width="31" height="31" viewBox="0 0 31 31" fill="none" xmlns="http://www.w3.org/2000/svg">
<path d="M6.80998 9.334C3.22248 10.1463 1.42873 10.5517 1.00144 11.924C0.575603 13.2948 1.79769 14.7255 4.24331 17.5853L4.87623 18.3246C5.5704 19.1369 5.91894 19.5438 6.07498 20.0455C6.23102 20.5486 6.17852 21.0911 6.07352 22.1746L5.97727 23.1619C5.60831 26.9784 5.4231 28.8859 6.54019 29.7332C7.65727 30.5805 9.33727 29.8075 12.6944 28.2617L13.565 27.8621C14.5187 27.4217 14.9956 27.203 15.5016 27.203C16.0077 27.203 16.4846 27.4217 17.4398 27.8621L18.3075 28.2617C21.666 29.8075 23.346 30.5805 24.4616 29.7346C25.5802 28.8859 25.395 26.9784 25.026 23.1619M26.76 17.5853C29.2056 14.7269 30.4277 13.2963 30.0019 11.924C29.576 10.5517 27.7808 10.1448 24.1933 9.334L23.2658 9.124C22.2464 8.89359 21.7375 8.77838 21.3277 8.46775C20.9179 8.15713 20.6569 7.68609 20.1319 6.744L19.6535 5.8865C17.8058 2.57317 16.8827 0.916504 15.5016 0.916504C14.1206 0.916504 13.1975 2.57317 11.3498 5.8865" stroke="#3E3E34" stroke-width="1.5" stroke-linecap="round"/>
</svg>
